<svg xmlns="http://www.w3.org/2000/svg" xmlns:svg="http://www.w3.org/2000/svg" id="svg6" width="155mm" height="155mm" version="1.1" viewBox="0 0 155 155"><g id="layer1"><path id="path845" d="M 77.745863,-0.00177167 C 77.127653,0.00542791 76.50955,0.02029008 75.891713,0.0421534 56.120937,0.74177998 36.615902,8.9469005 22.137889,24.487173 -6.8181341,55.567711 -5.0813853,104.63301 25.999152,133.58904 57.079688,162.54507 106.14447,160.8078 135.1005,129.72726 164.05652,98.646722 162.31977,49.581934 131.23924,20.62591 116.1846,6.6003298 96.910393,-0.22495935 77.745863,-0.00177167 Z M 78.032668,25.933079 c 8.634627,-0.09792 17.304343,2.003859 25.138002,6.329846 L 34.681826,103.26014 C 23.264374,84.229867 25.288106,59.395721 41.235431,42.278334 50.905891,31.898347 63.768714,26.42349 76.809486,25.962018 c 0.407525,-0.01442 0.815403,-0.02431 1.223182,-0.02894 z m 43.297092,23.080244 c 12.76582,19.255169 11.16889,45.217302 -5.3268,62.923287 -16.917214,18.15844 -43.604949,21.302 -63.920646,8.86199 z" style="color:#000;fill:#ff0029;stroke-width:1;stroke-linecap:round;stroke-linejoin:round;paint-order:markers fill stroke"/></g></svg>