<?xml version="1.0" encoding="UTF-8" standalone="no"?>
<!DOCTYPE svg PUBLIC "-//W3C//DTD SVG 1.1//EN" "http://www.w3.org/Graphics/SVG/1.1/DTD/svg11.dtd">
<svg width="100%" height="100%" viewBox="0 0 480 360" version="1.1" xmlns="http://www.w3.org/2000/svg" xmlns:xlink="http://www.w3.org/1999/xlink" xml:space="preserve" xmlns:serif="http://www.serif.com/" style="fill-rule:evenodd;clip-rule:evenodd;stroke-linejoin:round;stroke-miterlimit:2;">
    <g transform="matrix(0.466721,0,0,0.466721,-424.22,4.94335)">
        <g>
            <path d="M1297.31,487.621C1250.38,487.621 1212.27,449.533 1212.27,402.598L1212.27,232.538C1212.27,185.604 1250.38,147.502 1297.31,147.502L1697.43,147.502C1744.35,147.502 1782.45,185.604 1782.45,232.538L1782.45,487.621L1297.31,487.621ZM1375.32,275.865C1398.34,275.865 1417.03,294.552 1417.03,317.561C1417.03,340.584 1398.34,359.271 1375.32,359.271C1352.31,359.271 1333.62,340.584 1333.62,317.561C1333.62,294.552 1352.31,275.865 1375.32,275.865ZM1619.41,275.865C1642.42,275.865 1661.1,294.552 1661.1,317.561C1661.1,340.584 1642.42,359.271 1619.41,359.271C1596.4,359.271 1577.71,340.584 1577.71,317.561C1577.71,294.552 1596.4,275.865 1619.41,275.865ZM1497.89,275.865C1520.91,275.865 1539.58,294.552 1539.58,317.561C1539.58,340.584 1520.91,359.271 1497.89,359.271C1474.88,359.271 1456.19,340.584 1456.19,317.561C1456.19,294.552 1474.88,275.865 1497.89,275.865Z" style="fill:rgb(111,0,255);"/>
            <g>
                <clipPath id="_clip1">
                    <path d="M1297.31,487.621C1250.38,487.621 1212.27,449.533 1212.27,402.598L1212.27,232.538C1212.27,185.604 1250.38,147.502 1297.31,147.502L1697.43,147.502C1744.35,147.502 1782.45,185.604 1782.45,232.538L1782.45,487.621L1297.31,487.621ZM1375.32,275.865C1398.34,275.865 1417.03,294.552 1417.03,317.561C1417.03,340.584 1398.34,359.271 1375.32,359.271C1352.31,359.271 1333.62,340.584 1333.62,317.561C1333.62,294.552 1352.31,275.865 1375.32,275.865ZM1619.41,275.865C1642.42,275.865 1661.1,294.552 1661.1,317.561C1661.1,340.584 1642.42,359.271 1619.41,359.271C1596.4,359.271 1577.71,340.584 1577.71,317.561C1577.71,294.552 1596.4,275.865 1619.41,275.865ZM1497.89,275.865C1520.91,275.865 1539.58,294.552 1539.58,317.561C1539.58,340.584 1520.91,359.271 1497.89,359.271C1474.88,359.271 1456.19,340.584 1456.19,317.561C1456.19,294.552 1474.88,275.865 1497.89,275.865Z"/>
                </clipPath>
                <g clip-path="url(#_clip1)">
                    <g>
                        <g>
                            <path d="M1421.97,357.53C1421.97,330.654 1443.76,308.866 1470.63,308.866C1497.51,308.866 1519.3,330.654 1519.3,357.53C1519.3,384.407 1497.51,406.194 1470.63,406.194C1443.76,406.194 1421.97,384.407 1421.97,357.53Z" style="fill:rgb(102,9,214);"/>
                        </g>
                        <g>
                            <path d="M1563.78,357.53C1563.78,330.654 1585.57,308.866 1612.44,308.866C1639.32,308.866 1661.11,330.654 1661.11,357.53C1661.11,384.407 1639.32,406.194 1612.44,406.194C1585.57,406.194 1563.78,384.407 1563.78,357.53Z" style="fill:rgb(102,9,214);"/>
                        </g>
                        <g>
                            <path d="M1278.94,357.53C1278.94,330.654 1300.73,308.866 1327.61,308.866C1354.49,308.866 1376.27,330.654 1376.27,357.53C1376.27,384.407 1354.49,406.194 1327.61,406.194C1300.73,406.194 1278.94,384.407 1278.94,357.53Z" style="fill:rgb(102,9,214);"/>
                        </g>
                    </g>
                </g>
            </g>
        </g>
        <g>
            <path d="M1088.63,403.393C1088.63,375.224 1106.27,351.127 1131.07,341.472L1131.07,423.166C1131.07,493.92 1188.49,551.371 1259.18,551.371L1549.62,551.371C1542.72,580.747 1516.33,602.656 1484.9,602.656L1088.63,602.656L1088.63,403.393Z" style="fill:rgb(111,0,255);"/>
            <g>
                <clipPath id="_clip2">
                    <path d="M1088.63,403.393C1088.63,375.224 1106.27,351.127 1131.07,341.472L1131.07,423.166C1131.07,493.92 1188.49,551.371 1259.18,551.371L1549.62,551.371C1542.72,580.747 1516.33,602.656 1484.9,602.656L1088.63,602.656L1088.63,403.393Z"/>
                </clipPath>
                <g clip-path="url(#_clip2)">
                    <g>
                        <path d="M1171.04,576.138C1111.89,576.138 1063.87,528.137 1063.87,468.987L1063.87,254.667C1063.87,195.518 1111.89,147.499 1171.04,147.499L1675.3,147.499C1734.43,147.499 1782.45,195.518 1782.45,254.667L1782.45,576.138L1171.04,576.138ZM1269.35,309.271C1298.37,309.271 1321.92,332.821 1321.92,361.819C1321.92,390.834 1298.37,414.383 1269.35,414.383C1240.35,414.383 1216.8,390.834 1216.8,361.819C1216.8,332.821 1240.35,309.271 1269.35,309.271ZM1576.97,309.271C1605.97,309.271 1629.52,332.821 1629.52,361.819C1629.52,390.834 1605.97,414.383 1576.97,414.383C1547.97,414.383 1524.42,390.834 1524.42,361.819C1524.42,332.821 1547.97,309.271 1576.97,309.271ZM1423.82,309.271C1452.84,309.271 1476.37,332.821 1476.37,361.819C1476.37,390.834 1452.84,414.383 1423.82,414.383C1394.82,414.383 1371.27,390.834 1371.27,361.819C1371.27,332.821 1394.82,309.271 1423.82,309.271Z" style="fill:rgb(75,35,89);fill-opacity:0.25;"/>
                    </g>
                </g>
            </g>
        </g>
    </g>
</svg>
